<svg width="70" height="80" viewBox="0 0 70 80" fill="none" xmlns="http://www.w3.org/2000/svg">
<path d="M61.9088 50.593L54.741 49.5966L51.1507 46.9406V46.2725C52.824 45.0457 54.1822 43.4531 55.1171 41.6215C56.052 39.7898 56.538 37.7695 56.5362 35.7214V34.4018C57.6226 34.4023 58.6838 34.0806 59.5801 33.479C60.4765 32.8775 61.1662 32.0241 61.5585 31.0312C61.9508 30.0382 62.0274 28.9522 61.7783 27.9158C61.5291 26.8794 60.9657 25.9412 60.1623 25.2244C61.1307 24.9807 61.9762 24.4014 62.5421 23.5936C63.1081 22.7858 63.3561 21.8044 63.2404 20.8311C63.1246 19.8578 62.6529 18.9586 61.9125 18.3C61.1722 17.6415 60.2134 17.2683 59.2138 17.2495C59.0756 14.0728 57.922 11.0191 55.9161 8.52013C53.9103 6.02119 51.1537 4.20346 48.0362 3.32397C47.625 2.36648 46.9347 1.5492 46.0517 0.974503C45.1687 0.399809 44.1324 0.0932617 43.0724 0.0932617C42.0125 0.0932617 40.9761 0.399809 40.0932 0.974503C39.2102 1.5492 38.5199 2.36648 38.1087 3.32397C34.9912 4.20346 32.2346 6.02119 30.2287 8.52013C28.2229 11.0191 27.0693 14.0728 26.9311 17.2495C25.9315 17.2682 24.9727 17.6414 24.2323 18.3C23.4919 18.9585 23.0202 19.8577 22.9044 20.831C22.7886 21.8043 23.0366 22.7857 23.6026 23.5935C24.1685 24.4013 25.014 24.9807 25.9824 25.2244C25.1791 25.9412 24.6158 26.8795 24.3667 27.9158C24.1176 28.9522 24.1942 30.0382 24.5865 31.0311C24.9788 32.024 25.6685 32.8774 26.5649 33.479C27.4612 34.0806 28.5223 34.4023 29.6087 34.4018V35.7214C29.6068 37.7696 30.0927 39.7899 31.0276 41.6216C31.9626 43.4534 33.3208 45.046 34.9942 46.2727V46.9406L31.789 49.3117L24.5093 49.9659C23.9572 50.0193 23.411 50.1198 22.8768 50.2661V42.3194C22.8773 41.1984 22.5136 40.1065 21.8383 39.2018C21.163 38.2971 20.2112 37.6268 19.121 37.288C18.0309 36.9491 16.8589 36.9594 15.7751 37.3174C14.6913 37.6753 13.752 38.3623 13.0933 39.2787C12.8032 38.9006 12.4628 38.5622 12.0812 38.2725C11.239 37.6334 10.2223 37.2535 9.15974 37.1807C8.09718 37.1079 7.03647 37.3456 6.11173 37.8636C5.18699 38.3817 4.43975 39.1568 3.96451 40.0911C3.48927 41.0254 3.30737 42.0768 3.44182 43.1124C3.4536 43.2042 3.46824 43.2952 3.48474 43.3856L6.57989 65.5856L6.0994 66.1012C4.37746 66.2605 2.78413 67.0632 1.64984 68.3429C0.515551 69.6227 -0.0726636 71.2812 0.00718383 72.9746C0.0870312 74.6679 0.828814 76.2662 2.0787 77.438C3.32858 78.6097 4.99066 79.265 6.72025 79.2679H30.105C31.0443 79.2669 31.9448 78.9008 32.609 78.2498C33.2732 77.5988 33.6468 76.7162 33.6478 75.7956V72.9816L34.6222 71.0716C34.8909 70.5449 35.0177 69.9596 34.9907 69.3713C34.9636 68.7831 34.7836 68.2114 34.4677 67.7104C34.1518 67.2095 33.7106 66.7961 33.1858 66.5093C32.661 66.2226 32.0702 66.072 31.4694 66.072H28.2623V63.4328H25.5695V66.072H22.8768V53.049C23.4799 52.8085 24.1155 52.655 24.7636 52.5935L30.7001 52.0599L32.3221 61.0241C32.3602 61.2347 32.45 61.4331 32.5837 61.6021C32.7174 61.7712 32.8911 61.9059 33.0897 61.9945C33.2883 62.0832 33.5059 62.1232 33.7238 62.1111C33.9417 62.0991 34.1534 62.0352 34.3405 61.9252L39.9716 58.6138L41.7261 61.1932V79.2679H44.4188V61.1932L46.1733 58.6138L51.8044 61.9252C51.9915 62.0352 52.2032 62.0991 52.4211 62.1111C52.639 62.1232 52.8566 62.0832 53.0552 61.9945C53.2538 61.9059 53.4274 61.7712 53.5612 61.6021C53.6949 61.4331 53.7847 61.2347 53.8228 61.0241L55.3918 52.3527L61.5256 53.206C63.1259 53.4397 64.5882 54.2265 65.6485 55.4244C66.7087 56.6223 67.2971 58.1522 67.3072 59.738V79.2679H70V59.738C69.9867 57.5181 69.1637 55.3761 67.6799 53.699C66.196 52.0219 64.149 50.9202 61.9088 50.593ZM12.0857 46.6178L14.8036 66.072H9.36504L9.33323 65.8411L6.75391 47.3338C7.39467 47.592 8.08068 47.7252 8.77348 47.7259C9.00446 47.7259 9.23521 47.7115 9.46434 47.6828C10.42 47.5656 11.3256 47.1978 12.0857 46.6183V46.6178ZM20.184 76.6287H6.72025C5.64901 76.6287 4.62164 76.2117 3.86415 75.4692C3.10667 74.7268 2.68112 73.7199 2.68112 72.67C2.68112 71.62 3.10667 70.6131 3.86415 69.8707C4.62164 69.1283 5.64901 68.7112 6.72025 68.7112H20.184V76.6287ZM20.184 66.072H17.5214L14.8455 46.9137C15.6602 47.3664 16.5816 47.6023 17.5182 47.5979C18.4547 47.5935 19.3738 47.3489 20.184 46.8885V66.072ZM17.4913 44.9586C16.9587 44.9586 16.4381 44.8038 15.9953 44.5138C15.5524 44.2238 15.2073 43.8116 15.0035 43.3293C14.7997 42.8471 14.7464 42.3164 14.8503 41.8045C14.9542 41.2925 15.2106 40.8223 15.5872 40.4532C15.9638 40.0841 16.4436 39.8327 16.9659 39.7309C17.4883 39.6291 18.0297 39.6813 18.5217 39.8811C19.0138 40.0808 19.4343 40.4191 19.7302 40.8531C20.0261 41.2871 20.184 41.7974 20.184 42.3194C20.1832 43.0191 19.8992 43.6899 19.3944 44.1846C18.8896 44.6794 18.2052 44.9577 17.4913 44.9586ZM31.4694 68.7112C31.6112 68.7113 31.7506 68.7468 31.8745 68.8145C31.9983 68.8822 32.1025 68.9798 32.177 69.0981C32.2516 69.2163 32.2941 69.3512 32.3005 69.4901C32.3069 69.6289 32.2771 69.7671 32.2137 69.8914L31.0973 72.0798C31.0037 72.263 30.955 72.4651 30.955 72.67V75.7956C30.9548 76.0165 30.8651 76.2282 30.7058 76.3844C30.5464 76.5406 30.3304 76.6285 30.105 76.6287H22.8768V68.7112H31.4694ZM56.5362 31.7626V26.4843C57.2504 26.4843 57.9353 26.7623 58.4403 27.2573C58.9453 27.7522 59.229 28.4235 59.229 29.1235C59.229 29.8234 58.9453 30.4947 58.4403 30.9896C57.9353 31.4846 57.2504 31.7626 56.5362 31.7626ZM40.3797 5.37082C40.3797 4.67087 40.6634 3.99958 41.1684 3.50464C41.6734 3.0097 42.3583 2.73164 43.0724 2.73164C43.7866 2.73164 44.4715 3.0097 44.9765 3.50464C45.4815 3.99958 45.7652 4.67087 45.7652 5.37082V11.9688H40.3797V5.37082ZM32.3014 10.1984V14.608H34.9942V7.68143C35.8301 7.10017 36.7342 6.61926 37.6869 6.24901V13.2884C37.6869 13.6383 37.8288 13.974 38.0813 14.2215C38.3338 14.4689 38.6762 14.608 39.0333 14.608H47.1116C47.4687 14.608 47.8111 14.4689 48.0636 14.2215C48.3161 13.974 48.458 13.6383 48.458 13.2884V6.24901C49.4108 6.61929 50.3148 7.10025 51.1507 7.68159V14.608H53.8435V10.1982C55.4573 12.2204 56.3921 14.6829 56.5194 17.2471H29.6255C29.7528 14.683 30.6877 12.2205 32.3014 10.1984ZM25.5695 21.2994C25.5702 20.9248 25.7223 20.5656 25.9927 20.3007C26.2631 20.0358 26.6296 19.8868 27.0118 19.8863H59.133C59.5066 19.8864 59.8656 20.0286 60.1344 20.2829C60.4032 20.5372 60.5608 20.8838 60.5741 21.2497C60.5875 21.6156 60.4554 21.9723 60.2058 22.2447C59.9562 22.5171 59.6085 22.684 59.2359 22.7102L43.0724 23.8416L26.909 22.7102C26.5456 22.6836 26.2059 22.5236 25.9576 22.2622C25.7092 22.0008 25.5707 21.6573 25.5695 21.3001V21.2994ZM29.6087 31.7626C28.8945 31.7626 28.2096 31.4846 27.7046 30.9896C27.1996 30.4947 26.9159 29.8234 26.9159 29.1235C26.9159 28.4235 27.1996 27.7522 27.7046 27.2573C28.2096 26.7623 28.8945 26.4843 29.6087 26.4843V31.7626ZM32.3014 35.7214V25.7336L42.9765 26.4808C43.0085 26.4831 43.0405 26.4843 43.0724 26.4843C43.1044 26.4843 43.1364 26.4831 43.1684 26.4808L53.8435 25.7336V35.7214C53.8455 38.292 52.8877 40.7745 51.1507 42.7006V38.3606C51.1491 36.9612 50.5812 35.6195 49.5716 34.63C48.5619 33.6404 47.193 33.0838 45.7652 33.0822H40.3797C38.9519 33.0838 37.583 33.6404 36.5733 34.63C35.5637 35.6195 34.9958 36.9612 34.9942 38.3606V42.7011C33.2571 40.7748 32.2993 38.2922 32.3014 35.7214ZM48.458 38.3606V44.8596C46.8214 45.7886 44.9637 46.2779 43.0724 46.2779C41.1812 46.2779 39.3235 45.7886 37.6869 44.8596V38.3606C37.6878 37.6609 37.9718 36.9901 38.4766 36.4953C38.9814 36.0006 39.6658 35.7222 40.3797 35.7214H45.7652C46.4791 35.7222 47.1635 36.0006 47.6683 36.4953C48.1731 36.9901 48.4571 37.6609 48.458 38.3606ZM34.632 58.676L33.3296 51.4785L35.78 49.6657L38.6792 56.2966L34.632 58.676ZM44.5762 56.2041L43.0724 58.4148L41.5687 56.2044L37.9476 47.9227C41.2302 49.2486 44.9144 49.2486 48.1969 47.9227L44.5762 56.2041ZM51.5129 58.676L47.465 56.296L50.3643 49.665L52.8147 51.4778L51.5129 58.676ZM8.79586 45.1235C8.26328 45.1235 7.74267 44.9687 7.29985 44.6787C6.85703 44.3887 6.51189 43.9765 6.30808 43.4943C6.10427 43.012 6.05095 42.4814 6.15485 41.9694C6.25875 41.4575 6.51521 40.9872 6.8918 40.6181C7.26838 40.249 7.74819 39.9977 8.27053 39.8959C8.79287 39.794 9.3343 39.8463 9.82633 40.046C10.3184 40.2458 10.7389 40.5841 11.0348 41.0181C11.3307 41.4521 11.4886 41.9623 11.4886 42.4843C11.4878 43.184 11.2038 43.8548 10.699 44.3496C10.1942 44.8444 9.50976 45.1227 8.79586 45.1235Z" fill="#72758E"/>
<path d="M57.8825 71.3504H47.1115V73.9896H57.8825V79.268H60.5752V63.4329H57.8825V71.3504Z" fill="#72758E"/>
<path d="M37.0136 30.4429C38.129 30.4429 39.0332 29.5567 39.0332 28.4635C39.0332 27.3703 38.129 26.4841 37.0136 26.4841C35.8983 26.4841 34.9941 27.3703 34.9941 28.4635C34.9941 29.5567 35.8983 30.4429 37.0136 30.4429Z" fill="#72758E"/>
<path d="M49.131 30.4429C50.2464 30.4429 51.1506 29.5567 51.1506 28.4635C51.1506 27.3703 50.2464 26.4841 49.131 26.4841C48.0156 26.4841 47.1115 27.3703 47.1115 28.4635C47.1115 29.5567 48.0156 30.4429 49.131 30.4429Z" fill="#72758E"/>
<path d="M36.3405 64.7522H39.0332V67.3914H36.3405V64.7522Z" fill="#72758E"/>
<path d="M36.3405 76.6289H39.0332V79.2681H36.3405V76.6289Z" fill="#72758E"/>
<path d="M42.2795 38.3602H40.3796V40.9994H42.2795C43.6843 40.9966 45.0709 40.6874 46.3386 40.0943L45.1915 37.7065C44.2824 38.1335 43.2876 38.3568 42.2795 38.3602Z" fill="#72758E"/>
</svg>
