<svg width="70" height="79" viewBox="0 0 70 79" fill="none" xmlns="http://www.w3.org/2000/svg">
<path d="M35.9223 43.1424C35.7753 43.1112 35.6244 43.1056 35.4755 43.1275C33.9833 42.9572 32.8576 41.7198 32.855 40.2478C32.855 39.5424 32.2715 38.9705 31.5517 38.9705C30.832 38.9705 30.2485 39.5424 30.2485 40.2478C30.2523 42.7058 31.9297 44.8588 34.3479 45.5094V46.7867C34.3479 47.4921 34.9314 48.064 35.6512 48.064C36.3709 48.064 36.9544 47.4921 36.9544 46.7867V45.5867C39.7455 45.0141 41.6425 42.4663 41.3491 39.6865C41.0551 36.9067 38.6656 34.7942 35.8141 34.7936C34.1799 34.7936 32.855 33.4951 32.855 31.8934C32.855 30.2917 34.1799 28.9932 35.8141 28.9932C37.4482 28.9932 38.7731 30.2917 38.7731 31.8934C38.7731 32.5988 39.3567 33.1707 40.0764 33.1707C40.7961 33.1707 41.3797 32.5988 41.3797 31.8934C41.3758 29.3125 39.531 27.0866 36.9544 26.5539V25.3913C36.9544 24.6859 36.3709 24.114 35.6512 24.114C34.9314 24.114 34.3479 24.6859 34.3479 25.3913V26.6319C31.6587 27.3516 29.9278 29.9107 30.2981 32.6188C30.6685 35.3269 33.0262 37.3483 35.8141 37.3476C37.4266 37.3476 38.742 38.6131 38.7712 40.193C38.8011 41.7728 37.5335 43.085 35.9223 43.1424Z" fill="#72758E"/>
<path d="M16.9155 36.1686C16.9155 46.3985 25.3765 54.6912 35.8141 54.6912C46.2516 54.6912 54.7126 46.3985 54.7126 36.1686C54.7126 25.9387 46.2516 17.646 35.8141 17.646C25.3816 17.6572 16.9276 25.9437 16.9155 36.1686ZM35.8141 20.2007C44.8122 20.2007 52.1061 27.3495 52.1061 36.1686C52.1061 44.9877 44.8122 52.1365 35.8141 52.1365C26.816 52.1365 19.522 44.9877 19.522 36.1686C19.5322 27.3539 26.8204 20.2106 35.8141 20.2007Z" fill="#72758E"/>
<path d="M61.1373 57.8402L50.9282 62.5678C49.5187 59.9982 46.8148 58.3629 43.8392 58.2805L34.4147 58.0267C32.9225 57.9849 31.4582 57.6144 30.1314 56.9427L29.1724 56.4556C24.2623 53.9471 18.4097 53.9533 13.5047 56.4718L13.5645 54.3425C13.5842 53.6371 13.0172 53.0496 12.2975 53.0303L1.96303 52.7515C1.24331 52.7321 0.644494 53.2878 0.624767 53.9932L0.000499532 76.2206C-0.0192274 76.926 0.547767 77.5135 1.26749 77.5328L11.6019 77.8116H11.6376C12.3439 77.8116 12.9218 77.2609 12.9408 76.5692L12.9708 75.5058L15.6555 74.0969C16.7094 73.5412 17.9413 73.409 19.0925 73.7283L35.1249 78.1385C35.1529 78.1466 35.1809 78.1528 35.2096 78.159C36.3684 78.3967 37.5494 78.5158 38.7331 78.5152C41.2403 78.5164 43.7183 77.9869 45.9971 76.9615C46.0531 76.9366 46.1072 76.9073 46.1587 76.8742L69.4043 62.1375C69.9833 61.7701 70.1704 61.0248 69.8313 60.436C68.1055 57.4348 64.2778 56.2916 61.1373 57.8402ZM2.64202 75.0144L3.19438 55.3404L10.9229 55.5487L10.3706 75.2233L2.64202 75.0144ZM44.823 74.68C41.9919 75.9324 38.8298 76.278 35.7867 75.6686L19.7976 71.2697C17.998 70.7713 16.0717 70.9778 14.4255 71.8453L13.0535 72.5657L13.4207 59.4849C17.7683 56.6508 23.344 56.3596 27.9742 58.724L28.9332 59.2111C30.6093 60.0593 32.4579 60.5271 34.3435 60.5807L43.7686 60.8346C46.4158 60.9094 48.6641 62.7568 49.2012 65.299L35.1625 64.9192C34.4427 64.8998 33.8439 65.4562 33.8236 66.161C33.8038 66.8664 34.3715 67.4539 35.0906 67.4732L50.5833 67.8911H50.6196C51.3253 67.8905 51.9025 67.3398 51.9216 66.6487C51.9375 66.0936 51.8955 65.5379 51.7956 64.9915L62.2669 60.1423C62.277 60.1379 62.2872 60.1329 62.2974 60.1279C63.7827 59.3914 65.5785 59.6377 66.8003 60.746L44.823 74.68Z" fill="#72758E"/>
<path d="M37.1173 14.0548V1.92015C37.1173 1.21475 36.5338 0.642822 35.8141 0.642822C35.0943 0.642822 34.5108 1.21475 34.5108 1.92015V14.0548C34.5108 14.7602 35.0943 15.3321 35.8141 15.3321C36.5338 15.3321 37.1173 14.7602 37.1173 14.0548Z" fill="#72758E"/>
<path d="M46.8918 14.0554V8.30736C46.8918 7.60196 46.3083 7.03003 45.5885 7.03003C44.8688 7.03003 44.2853 7.60196 44.2853 8.30736V14.0554C44.2853 14.7608 44.8688 15.3327 45.5885 15.3327C46.3083 15.3327 46.8918 14.7608 46.8918 14.0554Z" fill="#72758E"/>
<path d="M27.3428 14.0554V8.30736C27.3428 7.60196 26.7592 7.03003 26.0395 7.03003C25.3198 7.03003 24.7363 7.60196 24.7363 8.30736V14.0554C24.7363 14.7608 25.3198 15.3327 26.0395 15.3327C26.7592 15.3327 27.3428 14.7608 27.3428 14.0554Z" fill="#72758E"/>
</svg>
