<svg width="70" height="70" viewBox="0 0 70 70" fill="none" xmlns="http://www.w3.org/2000/svg">
<path d="M14.6198 38.9215C14.9798 38.9215 15.3323 38.778 15.5866 38.5289C15.8408 38.2797 15.9871 37.9337 15.9871 37.5813C15.9871 37.229 15.8408 36.883 15.5866 36.6338C15.3323 36.3846 14.9798 36.2412 14.6198 36.2412C14.2587 36.2412 13.9073 36.3846 13.6531 36.6338C13.3972 36.883 13.2525 37.2275 13.2525 37.5813C13.2525 37.9337 13.3972 38.2797 13.6531 38.5289C13.9073 38.778 14.2587 38.9215 14.6198 38.9215Z" fill="#72758E"/>
<path d="M27.9128 15.6646C27.6121 15.3698 27.1885 15.229 26.7671 15.2835C26.3452 15.3379 25.9734 15.5819 25.7614 15.9431L16.1692 32.2607C15.7922 32.902 16.017 33.7212 16.6713 34.0908C17.3256 34.4604 18.1615 34.2395 18.5386 33.5987L23.211 25.6501L44.5275 46.5425L17.8907 61.5839L7.8643 51.757L13.0292 42.9713C13.4063 42.33 13.1814 41.5102 12.5271 41.1406C11.8723 40.771 11.0364 40.992 10.6593 41.6332L5.0618 51.1555L2.78434 53.3881C0.988645 55.1476 0 57.4871 0 59.9757C0 62.4639 0.988645 64.8033 2.78434 66.5633C4.63718 68.3793 7.07114 69.2875 9.5051 69.2875C11.9396 69.2875 14.3735 68.3793 16.2264 66.5633L17.6648 65.1535L20.0239 67.4653C21.4815 68.8944 23.3969 69.6084 25.3117 69.6084C27.227 69.6084 29.1418 68.8944 30.5999 67.4653C33.4291 64.6923 33.513 60.2317 30.8515 57.3583L54.4316 44.0434C54.8001 43.835 55.0485 43.4707 55.1046 43.0576C55.1601 42.6441 55.0164 42.229 54.7157 41.9342L27.9128 15.6646ZM4.71783 64.6677C3.43916 63.414 2.73466 61.7477 2.73466 59.9752C2.73466 58.2027 3.43916 56.5364 4.71783 55.2832L6.1562 53.8734L15.7313 63.258L14.2929 64.6677C11.6533 67.2553 7.35742 67.2553 4.71783 64.6677ZM28.6664 58.9947C30.5161 60.8075 30.5161 63.7569 28.6664 65.5697C26.8168 67.3825 23.8071 67.3831 21.9574 65.5697L19.8931 63.5464L28.4058 58.7398L28.6664 58.9947ZM46.9796 45.1579C46.9695 45.1474 46.9609 45.1369 46.9508 45.1265L24.6253 23.2452L27.2404 18.7961L51.5206 42.5933L46.9796 45.1579Z" fill="#72758E"/>
<path d="M34.6479 16.2689C34.7697 16.3018 34.892 16.3175 35.0122 16.3175C35.612 16.3175 36.1627 15.9275 36.3293 15.3334L38.0091 9.36246L39.1751 10.5052C39.5121 10.8356 40.0003 10.9701 40.4639 10.8602C40.927 10.7502 41.2982 10.4121 41.444 9.96709L43.8096 2.74399C44.0404 2.03937 43.6446 1.2845 42.9257 1.05835C42.2068 0.832208 41.4366 1.22011 41.2058 1.92473L39.525 7.05754L38.2821 5.83938C37.9381 5.50225 37.4371 5.36981 36.966 5.49126C36.4955 5.61323 36.1264 5.97078 35.9971 6.43092L33.6929 14.6204C33.4927 15.3344 33.9199 16.0725 34.6479 16.2689Z" fill="#72758E"/>
<path d="M69.8308 22.9791C69.467 22.3305 68.6359 22.0938 67.9742 22.4498L58.249 27.6852C57.8719 27.8884 57.6144 28.2532 57.5541 28.671C57.4932 29.0882 57.6363 29.5096 57.9408 29.8075L60.6162 32.4296L54.1929 34.0032C53.4601 34.1828 53.0146 34.9104 53.1978 35.6287C53.3533 36.2375 53.9109 36.6437 54.5235 36.6437C54.633 36.6437 54.7452 36.6306 54.8563 36.6034L63.6222 34.4555C64.1002 34.3388 64.4768 33.9786 64.6082 33.5133C64.7396 33.0479 64.6055 32.5495 64.2573 32.2082L61.1626 29.1751L69.2908 24.7992C69.9525 24.4427 70.1945 23.6282 69.8308 22.9791Z" fill="#72758E"/>
<path d="M63.0166 15.9236C63.2708 16.1744 63.6233 16.3168 63.9833 16.3168C64.3428 16.3168 64.6953 16.1744 64.9501 15.9236C65.2043 15.6745 65.3506 15.33 65.3506 14.9766C65.3506 14.6238 65.2043 14.2783 64.9501 14.0291C64.6953 13.7794 64.3428 13.636 63.9833 13.636C63.6233 13.636 63.2708 13.7794 63.0166 14.0291C62.7618 14.2783 62.6154 14.6238 62.6154 14.9766C62.6154 15.33 62.7618 15.6745 63.0166 15.9236Z" fill="#72758E"/>
<path d="M60.2195 16.7979C59.8852 16.1341 59.0653 15.8619 58.3881 16.1896L53.2835 18.6589C52.8883 18.85 52.6116 19.2164 52.54 19.6426C52.4685 20.0692 52.6105 20.5032 52.9219 20.8084L54.8533 22.7013L48.4226 25.8061C47.7453 26.1333 47.4665 26.9368 47.8003 27.6006C48.0385 28.0744 48.5235 28.3487 49.0282 28.3487C49.2307 28.3487 49.4368 28.3047 49.6313 28.211L57.7744 24.2791C58.1701 24.088 58.4473 23.7216 58.5195 23.2955C58.591 22.8688 58.4489 22.4348 58.137 22.1291L56.2046 20.2351L59.5984 18.593C60.2756 18.2653 60.5534 17.4617 60.2195 16.7979Z" fill="#72758E"/>
<path d="M43.1053 20.5042C43.3253 20.6335 43.5678 20.6952 43.8076 20.6952C44.2718 20.6952 44.7247 20.4633 44.9811 20.0445L50.044 11.7766L52.7007 14.3872C52.9902 14.6715 53.394 14.8138 53.802 14.7751C54.2096 14.7358 54.5781 14.5202 54.8056 14.1862L62.3848 3.07931C62.8046 2.46421 62.6363 1.63186 62.0087 1.2204C61.3806 0.809461 60.5314 0.97436 60.1116 1.58946L53.4597 11.3374L50.7426 8.66651C50.4451 8.37388 50.0258 8.23201 49.6082 8.28279C49.1899 8.33305 48.8187 8.56914 48.6019 8.92354L42.6363 18.6652C42.2475 19.3001 42.4574 20.1231 43.1053 20.5042Z" fill="#72758E"/>
</svg>
