<svg width="70" height="83" viewBox="0 0 70 83" fill="none" xmlns="http://www.w3.org/2000/svg">
<path d="M58.7741 24.7283H35.0001C34.0883 24.7283 33.3492 25.4527 33.3492 26.3464C33.3492 27.2401 34.0883 27.9645 35.0001 27.9645H58.7741C59.6859 27.9645 60.425 27.2401 60.425 26.3464C60.425 25.4527 59.6859 24.7283 58.7741 24.7283Z" fill="#72758E"/>
<path d="M52.9972 32.9692C52.6902 32.6683 52.2642 32.4951 51.83 32.4951C51.3958 32.4951 50.9699 32.6683 50.6628 32.9692C50.3557 33.2702 50.1791 33.6877 50.1791 34.1132C50.1791 34.5388 50.3557 34.9562 50.6628 35.2572C50.9699 35.5582 51.3958 35.7313 51.83 35.7313C52.2642 35.7313 52.6902 35.5582 52.9972 35.2572C53.3043 34.9562 53.481 34.5388 53.481 34.1132C53.481 33.6877 53.3043 33.2702 52.9972 32.9692Z" fill="#72758E"/>
<path d="M36.1656 7.56492C35.8586 7.26396 35.4326 7.09082 34.9984 7.09082C34.5642 7.09082 34.1383 7.26396 33.8312 7.56492C33.5241 7.86589 33.3475 8.28336 33.3475 8.70892C33.3475 9.13448 33.5241 9.55195 33.8312 9.85292C34.1383 10.1539 34.5642 10.327 34.9984 10.327C35.4326 10.327 35.8586 10.1539 36.1656 9.85292C36.4727 9.55195 36.6494 9.13448 36.6494 8.70892C36.6494 8.28336 36.4727 7.86589 36.1656 7.56492Z" fill="#72758E"/>
<path d="M44.8855 32.4951H35.0001C34.0883 32.4951 33.3492 33.2195 33.3492 34.1132C33.3492 35.0069 34.0883 35.7313 35.0001 35.7313H44.8855C45.7973 35.7313 46.5364 35.0069 46.5364 34.1132C46.5364 33.2195 45.7973 32.4951 44.8855 32.4951Z" fill="#72758E"/>
<path d="M58.7741 42.2036H35.0001C34.0883 42.2036 33.3492 42.928 33.3492 43.8217C33.3492 44.7154 34.0883 45.4398 35.0001 45.4398H58.7741C59.6859 45.4398 60.425 44.7154 60.425 43.8217C60.425 42.928 59.6859 42.2036 58.7741 42.2036Z" fill="#72758E"/>
<path d="M52.9972 50.4448C52.6902 50.1438 52.2642 49.9707 51.83 49.9707C51.3958 49.9707 50.9699 50.1438 50.6628 50.4448C50.3557 50.7458 50.1791 51.1632 50.1791 51.5888C50.1791 52.0144 50.3557 52.4318 50.6628 52.7328C50.9699 53.0338 51.3958 53.2069 51.83 53.2069C52.2642 53.2069 52.6902 53.0338 52.9972 52.7328C53.3043 52.4318 53.481 52.0144 53.481 51.5888C53.481 51.1632 53.3043 50.7458 52.9972 50.4448Z" fill="#72758E"/>
<path d="M44.8855 49.9707H35.0001C34.0883 49.9707 33.3492 50.6951 33.3492 51.5888C33.3492 52.4825 34.0883 53.2069 35.0001 53.2069H44.8855C45.7973 53.2069 46.5364 52.4825 46.5364 51.5888C46.5364 50.6951 45.7973 49.9707 44.8855 49.9707Z" fill="#72758E"/>
<path d="M58.7741 59.6792H35.0001C34.0883 59.6792 33.3492 60.4036 33.3492 61.2973C33.3492 62.191 34.0883 62.9154 35.0001 62.9154H58.7741C59.6859 62.9154 60.425 62.191 60.425 61.2973C60.425 60.4036 59.6859 59.6792 58.7741 59.6792Z" fill="#72758E"/>
<path d="M52.9972 67.9201C52.6902 67.6192 52.2642 67.446 51.83 67.446C51.3958 67.446 50.9699 67.6192 50.6628 67.9201C50.3557 68.2211 50.1791 68.6386 50.1791 69.0641C50.1791 69.4897 50.3557 69.9072 50.6628 70.2081C50.9699 70.5091 51.3958 70.6822 51.83 70.6822C52.2642 70.6822 52.6902 70.5091 52.9972 70.2081C53.3043 69.9072 53.481 69.4897 53.481 69.0641C53.481 68.6386 53.3043 68.2211 52.9972 67.9201Z" fill="#72758E"/>
<path d="M44.8855 67.446H35.0001C34.0883 67.446 33.3492 68.1705 33.3492 69.0641C33.3492 69.9578 34.0883 70.6822 35.0001 70.6822H44.8855C45.7973 70.6822 46.5364 69.9578 46.5364 69.0641C46.5364 68.1705 45.7973 67.446 44.8855 67.446Z" fill="#72758E"/>
<path d="M61.9505 6.44381H49.3407C47.5179 4.74141 45.0539 3.69288 42.3432 3.69288H40.8969C39.7913 1.5476 37.5198 0.133057 34.9999 0.133057C32.4801 0.133057 30.2087 1.5476 29.1029 3.69288H27.6532C24.9425 3.69288 22.4786 4.74141 20.6558 6.44381H8.04969C3.61112 6.44381 0 9.98308 0 14.3333V75.0904C0 79.4407 3.61112 82.98 8.04969 82.98H61.9503C66.3889 82.98 70 79.4407 70 75.0904V14.3333C70.0002 9.98308 66.3891 6.44381 61.9505 6.44381ZM27.6534 6.92908H30.2265C30.9691 6.92908 31.6203 6.44316 31.8179 5.74172C32.2116 4.34481 33.5202 3.36926 35.0001 3.36926C36.48 3.36926 37.7885 4.34481 38.1821 5.74172C38.3797 6.44316 39.031 6.92908 39.7735 6.92908H42.3432C45.9265 6.92908 48.8761 9.6394 49.1705 13.078H20.826C21.1204 9.6394 24.0702 6.92908 27.6534 6.92908ZM66.6983 75.0906C66.6983 77.6564 64.5684 79.7439 61.9505 79.7439H8.04969C5.43178 79.7439 3.30189 77.6564 3.30189 75.0906V14.3333C3.30189 11.7675 5.43178 9.68001 8.04969 9.68001H18.3429C17.802 10.8955 17.5 12.2356 17.5 13.6444V14.6961C17.5 15.5898 18.2392 16.3142 19.151 16.3142H50.8457C51.7575 16.3142 52.4967 15.5898 52.4967 14.6961V13.6444C52.4967 12.2358 52.1947 10.8955 51.6538 9.68001H61.9505C64.5684 9.68001 66.6983 11.7675 66.6983 14.3333V75.0906Z" fill="#72758E"/>
<path d="M24.5016 24.3387C23.8569 23.7068 22.8115 23.7068 22.1668 24.3385L15.107 31.258L12.9322 29.1263C12.2875 28.4946 11.2422 28.4946 10.5973 29.1263C9.9526 29.7582 9.9526 30.7828 10.5973 31.4148L13.9396 34.6906C14.2621 35.0067 14.6845 35.1646 15.107 35.1646C15.5295 35.1646 15.9521 35.0067 16.2744 34.6906L24.5016 26.6272C25.1463 25.9953 25.1463 24.9707 24.5016 24.3387Z" fill="#72758E"/>
<path d="M20.4718 59.6792H12.5473C11.6354 59.6792 10.8963 60.4036 10.8963 61.2973V69.0642C10.8963 69.9579 11.6354 70.6823 12.5473 70.6823H20.4718C21.3836 70.6823 22.1228 69.9579 22.1228 69.0642V61.2973C22.1228 60.4036 21.3836 59.6792 20.4718 59.6792ZM18.8209 67.4461H14.1982V62.9154H18.8209V67.4461Z" fill="#72758E"/>
<path d="M20.4718 42.2036H12.5473C11.6354 42.2036 10.8963 42.928 10.8963 43.8217V51.5886C10.8963 52.4823 11.6354 53.2067 12.5473 53.2067H20.4718C21.3836 53.2067 22.1228 52.4823 22.1228 51.5886V43.8217C22.1228 42.928 21.3836 42.2036 20.4718 42.2036ZM18.8209 49.9705H14.1982V45.4398H18.8209V49.9705Z" fill="#72758E"/>
</svg>
