<svg width="70" height="70" viewBox="0 0 70 70" fill="none" xmlns="http://www.w3.org/2000/svg">
<path d="M25.4659 43.4971C25.103 42.6442 24.2507 42.0896 23.3078 42.0923C22.3644 42.095 21.5159 42.6543 21.1578 43.5093L18.1349 50.8562L17.2452 52.9544C16.4048 54.9531 16.5741 57.2225 17.7009 59.0809C18.7338 60.8207 20.5518 61.9724 22.5944 62.1809C22.8336 62.2053 23.074 62.2175 23.3143 62.2175C23.5541 62.2175 23.7939 62.2053 24.0321 62.1814C26.0757 61.9735 27.8953 60.8218 28.9283 59.0809C30.0556 57.2231 30.2244 54.9531 29.384 52.9544L25.4659 43.4971ZM26.9248 57.9111C26.2662 59.0288 25.1025 59.7711 23.7934 59.9083C23.4744 59.9407 23.1526 59.9407 22.8336 59.9083C21.5251 59.7705 20.3625 59.0283 19.7039 57.9111C18.9525 56.6743 18.8391 55.1626 19.3979 53.8312L23.3094 44.3638L26.3416 51.7335L27.2313 53.8312C27.7901 55.1626 27.6767 56.6743 26.9248 57.9111Z" fill="#72758E"/>
<path d="M6.99401 39.3667C6.35056 39.3667 5.82864 39.8782 5.82864 40.5094V41.6521C5.82864 42.2828 6.35056 42.7943 6.99401 42.7943C7.638 42.7943 8.15992 42.2828 8.15992 41.6521V40.5094C8.15992 39.8782 7.638 39.3667 6.99401 39.3667Z" fill="#72758E"/>
<path d="M6.99397 45.0798C6.35055 45.0798 5.82864 45.5914 5.82864 46.2225V61.0752C5.82864 61.7063 6.35055 62.2178 6.99397 62.2178C7.63795 62.2178 8.15985 61.7063 8.15985 61.0752V46.2225C8.15985 45.5914 7.63795 45.0798 6.99397 45.0798Z" fill="#72758E"/>
<path d="M63.4269 37.6254C60.5711 36.1855 58.1005 34.9089 57.2059 32.0976L62.5215 26.8878C62.9587 26.4592 63.2045 25.878 63.2045 25.2719C63.2045 24.6657 62.9587 24.0845 62.5215 23.656L55.1036 16.3846C54.56 15.8518 53.7831 15.6168 53.0274 15.7556L42.8427 1.4958C42.4472 0.942273 41.8227 0.588145 41.1359 0.529123C40.4491 0.470633 39.7715 0.712036 39.2838 1.19006L26.0512 14.1594C25.3177 14.882 25.1593 15.9927 25.6617 16.885L27.3744 19.9073L24.2913 18.2276C23.3804 17.7363 22.2481 17.8921 21.5098 18.6099L18.1689 21.8848C18.0246 22.0299 17.9004 22.1937 17.8006 22.3713C12.7286 22.6441 0 23.7469 0 27.9411V32.5113C0.0379764 33.3344 0.470364 34.0911 1.16587 34.5537V63.5741C1.17292 63.639 1.18595 63.7028 1.20548 63.7656L1.20819 63.781C1.22392 63.8831 1.25376 63.9825 1.29662 64.0761C2.69469 67.9965 15.5426 69.0722 23.3142 69.0722C31.5409 69.0722 45.463 67.8689 45.463 63.3593V43.6068L49.7039 39.4503C52.5717 40.3271 53.8748 42.7481 55.3439 45.5476C56.1111 47.1625 57.0697 48.6827 58.1998 50.0774C59.2262 51.2477 60.7073 51.94 62.2806 51.9857C62.3522 51.9879 62.4238 51.9895 62.4954 51.9895C64.0568 51.9879 65.5541 51.3806 66.6592 50.2996L68.2765 48.7156C69.4315 47.5804 70.0543 46.0267 69.9963 44.4241C69.9502 42.8821 69.2433 41.4305 68.0497 40.425C66.6262 39.3169 65.0745 38.3773 63.4269 37.6254ZM60.8738 25.2708L42.7391 43.0453L35.3207 35.774L53.4554 18.0005L60.8738 25.2708ZM3.01912 33.042C2.75437 32.9138 2.52 32.732 2.33229 32.5086L2.3312 32.5092V30.7215C2.79126 30.9427 3.26488 31.1352 3.74935 31.299L3.80034 31.316L3.80414 31.3176C7.92457 32.7804 15.209 33.654 23.3142 33.654C25.6313 33.654 27.9473 33.571 30.2129 33.4216L33.0312 35.3555C33.0247 35.3885 33.0264 35.4225 33.0215 35.456C29.7962 35.7798 26.5563 35.9409 23.3142 35.9388C14.2775 35.9388 5.93786 34.7504 3.01912 33.042ZM23.9001 29.0902L27.1145 31.2953C25.8532 31.342 24.5842 31.3686 23.3142 31.3686C18.4467 31.4101 13.5847 31.0278 8.78554 30.226C13.5847 29.4246 18.4467 29.0423 23.3142 29.0838C23.5133 29.087 23.7059 29.0886 23.8996 29.0902H23.9001ZM23.1585 20.2253L29.8087 23.8463C30.2638 24.0946 30.8313 24.0165 31.1997 23.656C31.5675 23.2949 31.6473 22.7382 31.3939 22.2926L27.6999 15.7747L32.7697 10.8058L40.1952 19.5393C40.4583 19.8637 40.8804 20.0227 41.297 19.9552C41.7142 19.8876 42.0615 19.6042 42.2041 19.2145C42.3474 18.8247 42.2638 18.3892 41.986 18.0771L34.425 9.18348L40.9325 2.80544L51.1145 17.0626L34.3631 33.4806L19.8171 23.5007L23.1585 20.2253ZM17.812 24.6636C17.9807 24.9438 18.2085 25.1857 18.4803 25.3729L20.6097 26.833C13.8358 26.9989 7.86652 27.7848 4.17468 29.0115C3.48677 28.81 2.85582 28.4553 2.3312 27.9746V27.9688C2.68655 27.0585 7.57247 25.2123 17.812 24.6636ZM23.3142 66.7874C10.9741 66.7874 3.86653 64.5509 3.49707 63.3466V35.7734C7.51714 37.2841 14.9328 38.2236 23.3142 38.2236C26.8666 38.2284 30.4158 38.0402 33.9465 37.6589L41.0903 44.6607C41.5265 45.0909 42.12 45.3317 42.7391 45.3301C42.8709 45.3285 43.0022 45.3158 43.1318 45.2924V63.3439C42.7738 64.5477 35.6657 66.7874 23.3142 66.7874ZM66.6278 47.1002L65.0111 48.6848C64.3107 49.367 63.3537 49.7349 62.3668 49.702C61.4418 49.6775 60.57 49.2723 59.9651 48.5859C58.9576 47.3257 58.1026 45.9554 57.4169 44.5022C56.0671 41.9297 54.566 39.0691 51.5224 37.668L55.3868 33.88C56.8163 36.8635 59.7345 38.3342 62.3598 39.6577C63.8425 40.3298 65.2406 41.1678 66.5263 42.1552C67.2267 42.7481 67.6401 43.602 67.6656 44.5086C67.7003 45.4764 67.3249 46.4143 66.6278 47.1002Z" fill="#72758E"/>
<path d="M40.2661 34.1589L39.442 34.9666C39.1398 35.2537 39.0194 35.6781 39.1263 36.0769C39.2331 36.4757 39.5505 36.7873 39.9574 36.892C40.3643 36.9968 40.7973 36.8782 41.0902 36.5826L41.9149 35.7748C42.3603 35.3266 42.3554 34.6114 41.9046 34.169C41.4532 33.7271 40.7229 33.7223 40.2661 34.1589Z" fill="#72758E"/>
<path d="M52.6302 22.0409L43.5636 30.9276C43.2615 31.2147 43.141 31.639 43.2479 32.0378C43.3548 32.4366 43.6727 32.7482 44.0796 32.853C44.4865 32.9577 44.9194 32.8391 45.2123 32.5435L54.2789 23.6562C54.5805 23.3691 54.7015 22.9448 54.5946 22.546C54.4878 22.1472 54.1698 21.8356 53.7629 21.7314C53.3561 21.6266 52.9231 21.7447 52.6302 22.0409Z" fill="#72758E"/>
</svg>
