<svg width="70" height="70" viewBox="0 0 70 70" fill="none" xmlns="http://www.w3.org/2000/svg">
<path d="M69.293 26.9356L53.6667 20.3721V7.40419C53.6666 7.10095 53.5436 6.81016 53.3248 6.59577L47.4915 0.878489C47.2728 0.664035 46.9761 0.543522 46.6667 0.543457H3.5C2.57174 0.543457 1.6815 0.90487 1.02513 1.54819C0.368749 2.19151 0 3.06403 0 3.97382V65.7204C0 66.6302 0.368749 67.5027 1.02513 68.146C1.6815 68.7894 2.57174 69.1508 3.5 69.1508H50.1667C51.0949 69.1508 51.9852 68.7894 52.6415 68.146C53.2979 67.5027 53.6667 66.6302 53.6667 65.7204V62.8778L59.7403 58.631C62.9115 56.4063 65.4962 53.4732 67.2804 50.0744C69.0646 46.6757 69.9968 42.9093 70 39.0871V27.9864C70 27.7626 69.933 27.5438 69.8073 27.357C69.6816 27.1703 69.5028 27.0237 69.293 26.9356ZM51.3333 7.87758V8.54764H45.5V2.83037H46.1837L51.3333 7.87758ZM50.1667 66.8639H3.5C3.19058 66.8639 2.89383 66.7434 2.67504 66.529C2.45625 66.3145 2.33333 66.0237 2.33333 65.7204V3.97382C2.33333 3.67056 2.45625 3.37972 2.67504 3.16528C2.89383 2.95084 3.19058 2.83037 3.5 2.83037H43.1667V9.6911C43.1667 9.99436 43.2896 10.2852 43.5084 10.4996C43.7272 10.7141 44.0239 10.8346 44.3333 10.8346H51.3333V20.3721L35.707 26.9356C35.4972 27.0237 35.3184 27.1703 35.1927 27.357C35.067 27.5438 35 27.7626 35 27.9864V39.0871C35.0031 42.9093 35.9354 46.6757 37.7196 50.0744C39.5038 53.4732 42.0885 56.4063 45.2597 58.631L51.3333 62.8778V65.7204C51.3333 66.0237 51.2104 66.3145 50.9916 66.529C50.7728 66.7434 50.4761 66.8639 50.1667 66.8639ZM67.6667 39.0871C67.6632 42.5446 66.8195 45.9515 65.2054 49.0259C63.5912 52.1002 61.2531 54.7535 58.3847 56.766L52.5 60.8847L46.6153 56.7683C43.7465 54.7555 41.4082 52.1019 39.7941 49.0271C38.18 45.9524 37.3364 42.5449 37.3333 39.0871V28.7399L52.5 22.3697L67.6667 28.7399V39.0871Z" fill="#72758E"/>
<path d="M52.066 25.7809L40.3993 30.3547C40.1829 30.4397 39.9974 30.5864 39.8668 30.7757C39.7362 30.9651 39.6665 31.1884 39.6667 31.417V38.6322C39.6597 41.5486 40.3257 44.4288 41.6146 47.0574C42.9036 49.686 44.7822 51.9949 47.11 53.8116L51.7708 57.4706C51.9778 57.633 52.2349 57.7215 52.5 57.7215C52.7651 57.7215 53.0222 57.633 53.2292 57.4706L57.89 53.8116C60.2178 51.9949 62.0964 49.686 63.3854 47.0574C64.6743 44.4288 65.3402 41.5486 65.3333 38.6322V31.417C65.3335 31.1884 65.2638 30.9651 65.1332 30.7757C65.0026 30.5864 64.8171 30.4397 64.6007 30.3547L52.934 25.7809C52.6553 25.6723 52.3447 25.6723 52.066 25.7809ZM63 32.1911V38.6322C63.0063 41.2053 62.4189 43.7464 61.2816 46.0656C60.1444 48.3847 58.4868 50.4218 56.4328 52.0243L52.5 55.1094L48.5672 52.022C46.5135 50.4197 44.8561 48.383 43.7189 46.0643C42.5816 43.7456 41.994 41.2049 42 38.6322V32.1911L52.5 28.0747L63 32.1911Z" fill="#72758E"/>
<path d="M5.83334 21.1256H38.5C38.8094 21.1256 39.1062 21.0051 39.325 20.7907C39.5438 20.5762 39.6667 20.2854 39.6667 19.9821V6.26064C39.6667 5.95738 39.5438 5.66654 39.325 5.4521C39.1062 5.23766 38.8094 5.11719 38.5 5.11719H5.83334C5.52392 5.11719 5.22717 5.23766 5.00838 5.4521C4.78959 5.66654 4.66667 5.95738 4.66667 6.26064V19.9821C4.66667 20.2854 4.78959 20.5762 5.00838 20.7907C5.22717 21.0051 5.52392 21.1256 5.83334 21.1256ZM7.00001 7.4041H37.3333V18.8387H7.00001V7.4041Z" fill="#72758E"/>
<path d="M31.5 48.5686H5.83334C5.52392 48.5686 5.22717 48.6891 5.00838 48.9035C4.78959 49.118 4.66667 49.4088 4.66667 49.7121V63.4335C4.66667 63.7368 4.78959 64.0276 5.00838 64.2421C5.22717 64.4565 5.52392 64.577 5.83334 64.577H31.5C31.8094 64.577 32.1062 64.4565 32.325 64.2421C32.5438 64.0276 32.6667 63.7368 32.6667 63.4335V49.7121C32.6667 49.4088 32.5438 49.118 32.325 48.9035C32.1062 48.6891 31.8094 48.5686 31.5 48.5686ZM30.3333 62.2901H7.00001V50.8555H30.3333V62.2901Z" fill="#72758E"/>
<path d="M4.66667 26.843H32.6667V29.1299H4.66667V26.843Z" fill="#72758E"/>
<path d="M4.66667 33.7036H32.6667V35.9905H4.66667V33.7036Z" fill="#72758E"/>
<path d="M4.66667 40.5645H32.6667V42.8514H4.66667V40.5645Z" fill="#72758E"/>
</svg>
