<svg width="70" height="70" viewBox="0 0 70 70" fill="none" xmlns="http://www.w3.org/2000/svg">
<path d="M65.3333 6.35213V3.95087C65.3333 2.05633 63.7663 0.520508 61.8333 0.520508H60.6667C58.7337 0.520508 57.1667 2.05633 57.1667 3.95087V6.23778H47.8333V3.95087C47.8333 2.05633 46.2663 0.520508 44.3333 0.520508H43.1667C41.2337 0.520508 39.6667 2.05633 39.6667 3.95087V6.23778H30.3333V3.95087C30.3333 2.05633 28.7663 0.520508 26.8333 0.520508H25.6667C23.7337 0.520508 22.1667 2.05633 22.1667 3.95087V6.23778H12.8333V3.95087C12.8333 2.05633 11.2663 0.520508 9.33333 0.520508H8.16667C6.23367 0.520508 4.66667 2.05633 4.66667 3.95087V6.35213C1.95251 6.8992 0.003498 9.23924 0 11.9551V18.8158C0.0025025 19.6292 0.447124 20.3796 1.16667 20.7848V64.554C1.16667 67.0801 3.256 69.1278 5.83333 69.1278H64.1667C66.744 69.1278 68.8333 67.0801 68.8333 64.554V20.7848C69.5529 20.3796 69.9975 19.6292 70 18.8158V11.9551C69.9965 9.23924 68.0475 6.8992 65.3333 6.35213ZM59.5 3.95087C59.5 3.31936 60.0223 2.80742 60.6667 2.80742H61.8333C62.4777 2.80742 63 3.31936 63 3.95087V10.8116C63 11.4431 62.4777 11.9551 61.8333 11.9551H60.6667C60.0223 11.9551 59.5 11.4431 59.5 10.8116V3.95087ZM42 3.95087C42 3.31936 42.5223 2.80742 43.1667 2.80742H44.3333C44.9777 2.80742 45.5 3.31936 45.5 3.95087V10.8116C45.5 11.4431 44.9777 11.9551 44.3333 11.9551H43.1667C42.5223 11.9551 42 11.4431 42 10.8116V3.95087ZM24.5 3.95087C24.5 3.31936 25.0223 2.80742 25.6667 2.80742H26.8333C27.4777 2.80742 28 3.31936 28 3.95087V10.8116C28 11.4431 27.4777 11.9551 26.8333 11.9551H25.6667C25.0223 11.9551 24.5 11.4431 24.5 10.8116V3.95087ZM7 3.95087C7 3.31936 7.52233 2.80742 8.16667 2.80742H9.33333C9.97766 2.80742 10.5 3.31936 10.5 3.95087V10.8116C10.5 11.4431 9.97766 11.9551 9.33333 11.9551H8.16667C7.52233 11.9551 7 11.4431 7 10.8116V3.95087ZM2.33333 11.9551C2.33946 10.5065 3.27326 9.21792 4.66667 8.73509V10.8116C4.66667 12.7061 6.23367 14.242 8.16667 14.242H9.33333C11.2663 14.242 12.8333 12.7061 12.8333 10.8116V8.5247H22.1667V10.8116C22.1667 12.7061 23.7337 14.242 25.6667 14.242H26.8333C28.7663 14.242 30.3333 12.7061 30.3333 10.8116V8.5247H39.6667V10.8116C39.6667 12.7061 41.2337 14.242 43.1667 14.242H44.3333C46.2663 14.242 47.8333 12.7061 47.8333 10.8116V8.5247H57.1667V10.8116C57.1667 12.7061 58.7337 14.242 60.6667 14.242H61.8333C63.7663 14.242 65.3333 12.7061 65.3333 10.8116V8.73509C66.7267 9.21792 67.6605 10.5065 67.6667 11.9551V18.8158H2.33333V11.9551ZM66.5 64.554C66.5 65.817 65.4553 66.8409 64.1667 66.8409H5.83333C4.54467 66.8409 3.5 65.817 3.5 64.554V21.1027H66.5V64.554Z" fill="#72758E"/>
<path d="M10.4999 64.554H52.4999C52.6607 64.5542 52.8197 64.5211 52.9665 64.4568H52.9759L63.4759 59.883C63.8974 59.6996 64.1692 59.2899 64.1692 58.8379C64.1692 58.3858 63.8974 57.9762 63.4759 57.7928L52.9759 53.2189H52.9642C52.9525 53.2189 52.9385 53.2189 52.9257 53.2075C52.8051 53.1625 52.6778 53.1374 52.5489 53.1332C52.5325 53.1332 52.5185 53.124 52.5022 53.124H10.4999C7.92253 53.124 5.83319 55.1718 5.83319 57.6979V59.9848C5.83577 62.509 7.92435 64.554 10.4999 64.554ZM53.6665 61.6508V56.0227L60.1275 58.8367L53.6665 61.6508ZM51.3332 57.6933H30.3332C29.6889 57.6933 29.1665 58.2052 29.1665 58.8367C29.1665 59.4682 29.6889 59.9802 30.3332 59.9802H51.3332V62.2671H22.1665V59.9802H25.6665C26.3109 59.9802 26.8332 59.4682 26.8332 58.8367C26.8332 58.2052 26.3109 57.6933 25.6665 57.6933H22.1665V55.4064H51.3332V57.6933ZM19.8332 55.4064V62.2671H16.3332V55.4064H19.8332ZM8.16652 57.6933C8.16652 56.4302 9.21119 55.4064 10.4999 55.4064H13.9999V62.2671H10.4999C9.21119 62.2671 8.16652 61.2432 8.16652 59.9802V57.6933Z" fill="#72758E"/>
<path d="M21 50.8323C28.732 50.8323 35 44.689 35 37.1109C35 29.5327 28.732 23.3894 21 23.3894C13.268 23.3894 7 29.5327 7 37.1109C7.02688 44.6781 13.2792 50.806 21 50.8323ZM14.1937 27.8489L14.56 28.4709C14.7669 28.8276 15.153 29.0483 15.5716 29.0492C15.9903 29.0501 16.3773 28.8311 16.5859 28.4753C16.7944 28.1195 16.7924 27.6814 16.5807 27.3275L16.212 26.7009C17.3561 26.1898 18.5778 25.8653 19.8287 25.7403V26.4733C19.8287 27.1048 20.351 27.6168 20.9953 27.6168C21.6397 27.6168 22.162 27.1048 22.162 26.4733V25.7403C23.4129 25.8653 24.6345 26.1898 25.7787 26.7009L25.41 27.3275C25.1983 27.6814 25.1963 28.1195 25.4048 28.4753C25.6133 28.8311 26.0004 29.0501 26.419 29.0492C26.8377 29.0483 27.2237 28.8276 27.4307 28.4709L27.797 27.8489C28.8162 28.57 29.7108 29.4467 30.4465 30.4457L29.8118 30.8047C29.4479 31.0075 29.2227 31.3859 29.2218 31.7962C29.2209 32.2065 29.4444 32.5859 29.8074 32.7903C30.1704 32.9946 30.6173 32.9927 30.9785 32.7852L31.6178 32.4238C32.1393 33.5452 32.4703 34.7426 32.5978 35.9686H31.85C31.2057 35.9686 30.6833 36.4805 30.6833 37.112C30.6833 37.7435 31.2057 38.2555 31.85 38.2555H32.5978C32.4703 39.4815 32.1393 40.6788 31.6178 41.8002L30.9785 41.4388C30.6173 41.2313 30.1704 41.2294 29.8074 41.4338C29.4444 41.6381 29.2209 42.0175 29.2218 42.4278C29.2227 42.8381 29.4479 43.2165 29.8118 43.4193L30.4465 43.7784C29.7134 44.7758 28.8221 45.6517 27.8063 46.3729L27.44 45.7508C27.2331 45.3941 26.847 45.1734 26.4284 45.1725C26.0097 45.1716 25.6227 45.3906 25.4141 45.7465C25.2056 46.1023 25.2076 46.5403 25.4193 46.8943L25.788 47.5209C24.6439 48.032 23.4222 48.3564 22.1713 48.4814V47.7484C22.1713 47.1169 21.649 46.605 21.0047 46.605C20.3603 46.605 19.838 47.1169 19.838 47.7484V48.4814C18.5871 48.3564 17.3655 48.032 16.2213 47.5209L16.59 46.8943C16.8017 46.5403 16.8037 46.1023 16.5952 45.7465C16.3867 45.3906 15.9996 45.1716 15.581 45.1725C15.1623 45.1734 14.7763 45.3941 14.5693 45.7508L14.203 46.3729C13.183 45.6538 12.2873 44.779 11.55 43.7818L12.1847 43.4227C12.5486 43.2199 12.7738 42.8416 12.7747 42.4312C12.7756 42.0209 12.5522 41.6416 12.1891 41.4372C11.8261 41.2328 11.3792 41.2348 11.018 41.4423L10.3787 41.8036C9.8572 40.6822 9.52617 39.4849 9.39867 38.2589H10.1465C10.7908 38.2589 11.3132 37.747 11.3132 37.1154C11.3132 36.4839 10.7908 35.972 10.1465 35.972H9.39283C9.52034 34.746 9.85137 33.5486 10.3728 32.4273L11.0122 32.7886C11.3733 32.9961 11.8203 32.9981 12.1833 32.7937C12.5463 32.5893 12.7698 32.21 12.7689 31.7997C12.7679 31.3893 12.5428 31.0109 12.1788 30.8081L11.55 30.44C12.2845 29.4435 13.177 28.5687 14.1937 27.8489Z" fill="#72758E"/>
<path d="M22.3626 41.1764C22.594 41.5162 22.9927 41.7094 23.4087 41.6829C23.8247 41.6565 24.1947 41.4146 24.3794 41.0483C24.564 40.682 24.5353 40.247 24.304 39.9071L22.1666 36.7683V30.2506C22.1666 29.6191 21.6443 29.1072 21 29.1072C20.3556 29.1072 19.8333 29.6191 19.8333 30.2506V37.1114C19.8337 37.3372 19.9018 37.5579 20.0293 37.746L22.3626 41.1764Z" fill="#72758E"/>
<path d="M38.5001 26.8199H60.6668C61.3111 26.8199 61.8334 26.3079 61.8334 25.6764C61.8334 25.0449 61.3111 24.533 60.6668 24.533H38.5001C37.8558 24.533 37.3334 25.0449 37.3334 25.6764C37.3334 26.3079 37.8558 26.8199 38.5001 26.8199Z" fill="#72758E"/>
<path d="M38.5001 32.5372H60.6668C61.3111 32.5372 61.8334 32.0252 61.8334 31.3937C61.8334 30.7622 61.3111 30.2502 60.6668 30.2502H38.5001C37.8558 30.2502 37.3334 30.7622 37.3334 31.3937C37.3334 32.0252 37.8558 32.5372 38.5001 32.5372Z" fill="#72758E"/>
<path d="M38.5001 38.2549H60.6668C61.3111 38.2549 61.8334 37.743 61.8334 37.1115C61.8334 36.48 61.3111 35.968 60.6668 35.968H38.5001C37.8558 35.968 37.3334 36.48 37.3334 37.1115C37.3334 37.743 37.8558 38.2549 38.5001 38.2549Z" fill="#72758E"/>
<path d="M38.5001 43.9719H60.6668C61.3111 43.9719 61.8334 43.46 61.8334 42.8285C61.8334 42.197 61.3111 41.6851 60.6668 41.6851H38.5001C37.8558 41.6851 37.3334 42.197 37.3334 42.8285C37.3334 43.46 37.8558 43.9719 38.5001 43.9719Z" fill="#72758E"/>
<path d="M38.5001 49.689H50.1667C50.8111 49.689 51.3334 49.177 51.3334 48.5455C51.3334 47.914 50.8111 47.4021 50.1667 47.4021H38.5001C37.8558 47.4021 37.3334 47.914 37.3334 48.5455C37.3334 49.177 37.8558 49.689 38.5001 49.689Z" fill="#72758E"/>
</svg>
