<svg width="70" height="70" viewBox="0 0 70 70" fill="none" xmlns="http://www.w3.org/2000/svg">
<path d="M59.8206 58.3363L60.2621 54.8794L58.0221 54.605L57.5806 58.0619H54.1935V60.275H57.5806C58.7176 60.275 59.6806 59.4418 59.8206 58.3363Z" fill="#72758E"/>
<path d="M67.7295 22.8522C67.7318 22.7847 67.7419 22.7183 67.7419 22.6519C67.7419 19.9474 65.7514 17.69 63.131 17.212C62.6432 14.6437 60.34 12.6928 57.5806 12.6928C55.7313 12.6928 54.0502 13.5625 53.0013 15.0121C51.9445 14.803 50.8798 14.9092 49.9145 15.2722C48.8961 13.692 47.1123 12.6928 45.1613 12.6928C42.8897 12.6928 40.8585 14.0472 39.9802 16.0346C39.2903 15.9704 38.6219 16.0446 37.9637 16.2349C36.6845 14.6957 34.7923 13.7993 32.7419 13.7993C31.0055 13.7993 29.426 14.4478 28.2258 15.5035V4.94679C28.2258 2.50569 26.2003 0.520508 23.7097 0.520508C21.219 0.520508 19.1935 2.50569 19.1935 4.94679V42.5702H16.9355C15.0681 42.5702 13.5484 44.0596 13.5484 45.8899V49.2096H5.64516C2.53242 49.2096 0 51.6916 0 54.7424V58.0621H2.25806V69.1278H45.1613V64.7016H58.1102C60.9519 64.7016 63.3602 62.6179 63.7158 59.8238L66.509 31.5045H66.6129C68.4803 31.5045 70 30.015 70 28.1848V25.9716C70 24.5264 69.0471 23.307 67.7295 22.8522ZM32.7419 16.0125C34.3181 16.0125 35.7542 16.8125 36.5863 18.1526L37.1215 19.0135L38.0461 18.572C38.7947 18.2157 39.445 18.0928 40.4363 18.3706L41.6003 18.6948L41.851 17.5351C42.1784 16.0114 43.5716 14.9059 45.1613 14.9059C46.5873 14.9059 47.8653 15.8022 48.3418 17.1368L48.8261 18.4934L50.041 17.6878C50.9216 17.1047 52.0156 16.932 53.1277 17.3448L54.0942 17.7033L54.5435 16.7915C55.116 15.6285 56.2811 14.9059 57.5806 14.9059C59.4481 14.9059 60.9677 16.3954 60.9677 18.2256V19.3322H62.0968C63.9642 19.3322 65.4839 20.8216 65.4839 22.6519H29.3548C28.9574 22.6519 28.5803 22.7316 28.2258 22.8555V20.4388C28.2258 17.9977 30.2513 16.0125 32.7419 16.0125ZM29.4587 31.5045L30.5505 42.5768C30.5279 42.5768 30.5065 42.5702 30.4839 42.5702H28.2258V31.3009C28.5803 31.4248 28.9574 31.5045 29.3548 31.5045H29.4587ZM21.4516 4.94679C21.4516 3.72624 22.4644 2.73365 23.7097 2.73365C24.955 2.73365 25.9677 3.72624 25.9677 4.94679V25.9716V28.1848V42.5702H21.4516V4.94679ZM15.8065 45.8899C15.8065 45.2801 16.3134 44.7833 16.9355 44.7833H30.4839C31.106 44.7833 31.6129 45.2801 31.6129 45.8899V49.2096H15.8065V45.8899ZM2.25806 54.7424C2.25806 52.9122 3.77774 51.4227 5.64516 51.4227H41.7742C43.6416 51.4227 45.1613 52.9122 45.1613 54.7424V55.849H2.25806V54.7424ZM29.3548 60.2753V66.9147H27.0968V58.0621H33.871V66.9147H31.6129V60.2753H29.3548ZM20.3226 60.2753V66.9147H18.0645V58.0621H24.8387V66.9147H22.5806V60.2753H20.3226ZM11.2903 60.2753V66.9147H9.03226V58.0621H15.8065V66.9147H13.5484V60.2753H11.2903ZM4.51613 58.0621H6.77419V66.9147H4.51613V58.0621ZM40.6452 66.9147V60.2753H38.3871V66.9147H36.129V58.0621H42.9032V66.9147H40.6452ZM61.4713 59.5804C61.2602 61.238 59.815 62.4884 58.1102 62.4884H45.1613V58.0621H47.4194V54.7424C47.4194 51.6916 44.8869 49.2096 41.7742 49.2096H33.871V45.8899C33.871 44.998 33.5063 44.1913 32.9203 43.5937L31.7269 31.5045H64.2408L61.4713 59.5804ZM67.7419 28.1848C67.7419 28.7945 67.235 29.2913 66.6129 29.2913H29.3548C28.7327 29.2913 28.2258 28.7945 28.2258 28.1848V25.9716C28.2258 25.3619 28.7327 24.865 29.3548 24.865H66.6129C67.235 24.865 67.7419 25.3619 67.7419 25.9716V28.1848Z" fill="#72758E"/>
<path d="M66.6129 12.6929C68.4803 12.6929 70 11.2034 70 9.37318C70 7.54291 68.4803 6.05347 66.6129 6.05347C64.7455 6.05347 63.2258 7.54291 63.2258 9.37318C63.2258 11.2034 64.7455 12.6929 66.6129 12.6929ZM66.6129 8.26661C67.235 8.26661 67.742 8.76346 67.742 9.37318C67.742 9.9829 67.235 10.4797 66.6129 10.4797C65.9908 10.4797 65.4839 9.9829 65.4839 9.37318C65.4839 8.76346 65.9908 8.26661 66.6129 8.26661Z" fill="#72758E"/>
<path d="M41.7742 10.4798C43.6416 10.4798 45.1613 8.99031 45.1613 7.16004C45.1613 5.32977 43.6416 3.84033 41.7742 3.84033C39.9068 3.84033 38.3871 5.32977 38.3871 7.16004C38.3871 8.99031 39.9068 10.4798 41.7742 10.4798ZM41.7742 6.05347C42.3963 6.05347 42.9032 6.55032 42.9032 7.16004C42.9032 7.76976 42.3963 8.26661 41.7742 8.26661C41.1521 8.26661 40.6451 7.76976 40.6451 7.16004C40.6451 6.55032 41.1521 6.05347 41.7742 6.05347Z" fill="#72758E"/>
<path d="M57.5806 9.37307C60.0713 9.37307 62.0968 7.38788 62.0968 4.94679C62.0968 2.50569 60.0713 0.520508 57.5806 0.520508C55.09 0.520508 53.0645 2.50569 53.0645 4.94679C53.0645 7.38788 55.09 9.37307 57.5806 9.37307ZM57.5806 2.73365C58.826 2.73365 59.8387 3.72624 59.8387 4.94679C59.8387 6.16733 58.826 7.15993 57.5806 7.15993C56.3353 7.15993 55.3226 6.16733 55.3226 4.94679C55.3226 3.72624 56.3353 2.73365 57.5806 2.73365Z" fill="#72758E"/>
<path d="M49.6774 58.0623H51.9355V60.2754H49.6774V58.0623Z" fill="#72758E"/>
<path d="M38.3871 33.7175H40.6451V35.9307H38.3871V33.7175Z" fill="#72758E"/>
<path d="M33.871 33.7175H36.129V35.9307H33.871V33.7175Z" fill="#72758E"/>
<path d="M42.9032 33.7175H45.1613V35.9307H42.9032V33.7175Z" fill="#72758E"/>
<path d="M5.64515 39.2505C7.51257 39.2505 9.03225 37.7611 9.03225 35.9308C9.03225 34.1005 7.51257 32.6111 5.64515 32.6111C3.77773 32.6111 2.25806 34.1005 2.25806 35.9308C2.25806 37.7611 3.77773 39.2505 5.64515 39.2505ZM5.64515 34.8242C6.26725 34.8242 6.77419 35.3211 6.77419 35.9308C6.77419 36.5405 6.26725 37.0374 5.64515 37.0374C5.02306 37.0374 4.51612 36.5405 4.51612 35.9308C4.51612 35.3211 5.02306 34.8242 5.64515 34.8242Z" fill="#72758E"/>
<path d="M12.4193 25.9717C14.91 25.9717 16.9355 23.9865 16.9355 21.5454C16.9355 19.1043 14.91 17.1191 12.4193 17.1191C9.92868 17.1191 7.9032 19.1043 7.9032 21.5454C7.9032 23.9865 9.92868 25.9717 12.4193 25.9717ZM12.4193 19.3323C13.6646 19.3323 14.6774 20.3249 14.6774 21.5454C14.6774 22.766 13.6646 23.7586 12.4193 23.7586C11.174 23.7586 10.1613 22.766 10.1613 21.5454C10.1613 20.3249 11.174 19.3323 12.4193 19.3323Z" fill="#72758E"/>
<path d="M5.64515 13.7993C7.51257 13.7993 9.03225 12.3099 9.03225 10.4796C9.03225 8.64935 7.51257 7.15991 5.64515 7.15991C3.77773 7.15991 2.25806 8.64935 2.25806 10.4796C2.25806 12.3099 3.77773 13.7993 5.64515 13.7993ZM5.64515 9.37305C6.26725 9.37305 6.77419 9.8699 6.77419 10.4796C6.77419 11.0893 6.26725 11.5862 5.64515 11.5862C5.02306 11.5862 4.51612 11.0893 4.51612 10.4796C4.51612 9.8699 5.02306 9.37305 5.64515 9.37305Z" fill="#72758E"/>
</svg>
