<svg width="70" height="74" viewBox="0 0 70 74" fill="none" xmlns="http://www.w3.org/2000/svg">
<path d="M21.2719 21.2568H18.7693V23.7096H21.2719V21.2568Z" fill="#72758E"/>
<path d="M33.7847 21.2568H31.2822V23.7096H33.7847V21.2568Z" fill="#72758E"/>
<path d="M31.2821 28.615H28.7796C28.7796 29.2655 28.5159 29.8894 28.0466 30.3494C27.5773 30.8093 26.9407 31.0678 26.277 31.0678C25.6133 31.0678 24.9768 30.8093 24.5075 30.3494C24.0381 29.8894 23.7745 29.2655 23.7745 28.615H21.2719C21.2719 29.916 21.7992 31.1638 22.7379 32.0837C23.6765 33.0037 24.9496 33.5205 26.277 33.5205C27.6045 33.5205 28.8775 33.0037 29.8162 32.0837C30.7548 31.1638 31.2821 29.916 31.2821 28.615Z" fill="#72758E"/>
<path d="M66.6933 12.6721C66.5378 12.5205 66.3443 12.4117 66.1323 12.3565C65.9204 12.3013 65.6973 12.3016 65.4856 12.3575C65.2738 12.4134 65.0807 12.5229 64.9257 12.675C64.7707 12.827 64.6592 13.0164 64.6024 13.224L62.8856 19.5043L58.7727 20.3284L55.6332 17.5997L57.3462 11.3231C57.4029 11.1155 57.4028 10.8969 57.3461 10.6893C57.2895 10.4817 57.1781 10.2923 57.0233 10.1402C56.8684 9.98804 56.6755 9.87844 56.4638 9.82238C56.2521 9.76632 56.0291 9.76577 55.8171 9.82077C53.9686 10.3042 52.2766 11.2419 50.901 12.5451C49.5254 13.8483 48.5117 15.4739 47.956 17.2682C47.4003 19.0625 47.3208 20.966 47.7251 22.7988C48.1294 24.6316 49.0041 26.3329 50.2665 27.7419L45.1337 46.5203C44.4151 46.1525 43.6653 45.8464 42.8927 45.6054L32.5333 42.4303V38.1736C34.793 37.0446 36.6902 35.3252 38.0152 33.2055C39.3401 31.0858 40.0412 28.6482 40.041 26.1623V24.936C40.8778 24.9387 41.6913 24.6664 42.3515 24.1626C43.0118 23.6588 43.4807 22.9527 43.6833 22.157C43.8859 21.3613 43.8105 20.522 43.4692 19.7732C43.1278 19.0244 42.5402 18.4095 41.8003 18.0265C41.8727 17.9246 41.9387 17.8186 41.998 17.7089L42.1231 17.4562C42.3614 16.9929 42.4964 16.4852 42.5191 15.9668C42.5418 15.4485 42.4517 14.9313 42.2547 14.4497C42.0578 13.968 41.7585 13.533 41.3769 13.1735C40.9952 12.8139 40.5398 12.5381 40.041 12.3643V6.09869C40.0371 5.24916 39.7348 4.42687 39.1849 3.77018C38.635 3.1135 37.8711 2.66252 37.0217 2.49312L28.4779 0.809298C27.0202 0.534596 25.5224 0.534596 24.0647 0.809298L15.531 2.49312C14.6818 2.66277 13.9182 3.11385 13.3685 3.77051C12.8188 4.42717 12.5167 5.24933 12.5129 6.09869V12.3643C12.0139 12.5377 11.5583 12.8132 11.1763 13.1725C10.7944 13.5318 10.4948 13.9667 10.2975 14.4482C10.1002 14.9297 10.0097 15.4468 10.032 15.9653C10.0544 16.4837 10.189 16.9915 10.427 17.455L10.5521 17.7003C10.6108 17.8111 10.6756 17.9188 10.7461 18.0228C10.0035 18.4051 9.41359 19.0208 9.07094 19.7711C8.72828 20.5214 8.65279 21.3628 8.85658 22.1602C9.06038 22.9576 9.53163 23.6647 10.1947 24.1681C10.8578 24.6715 11.6742 24.9419 12.5129 24.936V26.1623C12.5156 28.6463 13.2181 31.0813 14.5428 33.199C15.8675 35.3166 17.7631 37.0347 20.0205 38.1637V42.4303L9.66371 45.6054C6.85779 46.4521 4.40383 48.1603 2.66386 50.478C0.923881 52.7957 -0.00996728 55.6001 8.02356e-05 58.4776V72.765C8.02356e-05 73.0902 0.131911 73.4022 0.366572 73.6321C0.601232 73.8621 0.9195 73.9913 1.25136 73.9913H51.3025C51.6344 73.9913 51.9527 73.8621 52.1873 73.6321C52.422 73.4022 52.5538 73.0902 52.5538 72.765V70.3122H50.0513V71.5386H43.7949V67.8594H41.2923V71.5386H11.2616V58.0483H8.75903V71.5386H2.50264V58.4776C2.49412 56.1236 3.25798 53.8293 4.68146 51.9333C6.10495 50.0373 8.11264 48.6401 10.4082 47.9478L13.7642 46.9189V54.3692C13.7661 55.9949 14.4259 57.5534 15.5988 58.703C16.7717 59.8525 18.3619 60.4992 20.0205 60.5011H32.5333C33.3961 60.4994 34.2491 60.3216 35.038 59.9791C35.8269 59.6367 36.5344 59.137 37.1155 58.5119C37.15 61.3922 38.335 64.1444 40.4164 66.178C40.5719 66.3296 40.7654 66.4385 40.9773 66.4937C41.1893 66.5489 41.4123 66.5486 41.6241 66.4927C41.8359 66.4368 42.0289 66.3273 42.184 66.1752C42.339 66.0231 42.4505 65.8338 42.5073 65.6262L44.224 59.3459L48.3358 58.5205L51.4765 61.2492L49.7597 67.5295C49.71 67.7112 49.7036 67.9017 49.741 68.0863C49.7785 68.2708 49.8587 68.4444 49.9756 68.5937C50.0924 68.743 50.2427 68.8639 50.4149 68.9471C50.5871 69.0303 50.7765 69.0736 50.9684 69.0735C51.0761 69.0733 51.1833 69.0597 51.2875 69.0331C53.1364 68.5502 54.829 67.6128 56.2051 66.3097C57.5811 65.0066 58.595 63.3808 59.1508 61.5863C59.7066 59.7918 59.7859 57.8879 59.3812 56.055C58.9765 54.222 58.1012 52.5207 56.8382 51.1119L62.3588 30.917C64.1719 30.316 65.7985 29.2712 67.0844 27.8817C68.3703 26.4922 69.273 24.804 69.7071 22.9769C70.1411 21.1499 70.0921 19.2445 69.5647 17.4412C69.0373 15.6379 68.049 13.9964 66.6933 12.6721ZM43.4558 48.4592C41.5297 49.3846 39.9116 50.8272 38.7897 52.6191V46.9189L42.1444 47.9478C42.592 48.0912 43.03 48.262 43.4558 48.4592ZM32.6072 45.0254L31.6412 49.964L28.2953 48.0018L31.6312 44.7323L32.6072 45.0254ZM14.1395 17.2686C13.8727 17.316 13.5974 17.2772 13.355 17.158C13.1126 17.0388 12.9163 16.8456 12.7957 16.6076L12.6705 16.3623C12.5823 16.1894 12.5369 15.9985 12.5383 15.8052C12.5396 15.6119 12.5876 15.4216 12.6782 15.2499C12.7688 15.0782 12.8996 14.9299 13.0599 14.8172C13.2201 14.7045 13.4053 14.6305 13.6002 14.6012L24.5715 12.9481C25.7059 12.7764 26.8605 12.7764 27.995 12.9481L38.9662 14.6012C39.1609 14.6304 39.3459 14.7043 39.506 14.8168C39.6661 14.9293 39.7968 15.0773 39.8876 15.2487C39.9783 15.4201 40.0265 15.6101 40.0281 15.8032C40.0298 15.9962 39.9849 16.187 39.8971 16.3599L39.772 16.6125C39.651 16.8498 39.4547 17.0423 39.2127 17.1611C38.9706 17.2798 38.6957 17.3184 38.4294 17.2711L28.3015 15.4646C26.9703 15.2267 25.6061 15.2267 24.2749 15.4646L14.1395 17.2686ZM40.041 22.4832V20.0304C40.3729 20.0304 40.6911 20.1596 40.9258 20.3896C41.1605 20.6196 41.2923 20.9316 41.2923 21.2568C41.2923 21.5821 41.1605 21.894 40.9258 22.124C40.6911 22.354 40.3729 22.4832 40.041 22.4832ZM37.5385 6.09869V11.9032L34.3164 11.4126L35.6803 4.72514L36.5262 4.89193C36.811 4.94791 37.0673 5.0986 37.2517 5.3185C37.4362 5.5384 37.5375 5.81401 37.5385 6.09869ZM24.5477 3.21914C25.6863 3.00392 26.8563 3.00392 27.995 3.21914L33.2278 4.24931L31.8401 11.0472L28.3703 10.5235C26.983 10.3126 25.5709 10.3126 24.1836 10.5235L20.7138 11.0472L19.3261 4.24685L24.5477 3.21914ZM16.0265 4.89684L16.8736 4.73005L18.2375 11.4175L15.0154 11.9081V6.09869C15.0175 5.81503 15.1191 5.54071 15.3032 5.32184C15.4874 5.10296 15.7427 4.95289 16.0265 4.89684ZM11.2616 21.2568C11.2616 20.9316 11.3934 20.6196 11.6281 20.3896C11.8627 20.1596 12.181 20.0304 12.5129 20.0304V22.4832C12.181 22.4832 11.8627 22.354 11.6281 22.124C11.3934 21.894 11.2616 21.5821 11.2616 21.2568ZM15.0154 26.1623V19.6036L24.7103 17.8769C25.7446 17.6923 26.8043 17.6923 27.8385 17.8769L37.5385 19.6036V26.1623C37.5385 29.0897 36.352 31.8971 34.24 33.967C32.1281 36.0369 29.2637 37.1998 26.2769 37.1998C23.2902 37.1998 20.4258 36.0369 18.3139 33.967C16.2019 31.8971 15.0154 29.0897 15.0154 26.1623ZM26.2769 39.6526C27.5465 39.6504 28.8097 39.4766 30.0308 39.1363V42.824L26.2769 46.5032L22.5231 42.824V39.1301C23.7437 39.4737 25.007 39.6495 26.2769 39.6526ZM20.9227 44.7237L24.2586 47.992L20.9127 49.9542L19.9467 45.0156L20.9227 44.7237ZM32.5333 58.0483H20.0205C19.025 58.0483 18.0702 57.6607 17.3662 56.9707C16.6622 56.2808 16.2667 55.345 16.2667 54.3692V46.1524L17.5418 45.7612L18.793 52.1482C18.8307 52.3426 18.9159 52.5252 19.0412 52.6804C19.1665 52.8356 19.3283 52.9587 19.5127 53.0393C19.6971 53.12 19.8986 53.1556 20.1002 53.1433C20.3017 53.131 20.4972 53.0711 20.67 52.9687L26.2769 49.6672L31.8889 52.9674C32.0617 53.0699 32.2572 53.1298 32.4587 53.1421C32.6603 53.1544 32.8618 53.1187 33.0462 53.0381C33.2306 52.9575 33.3924 52.8344 33.5177 52.6792C33.643 52.524 33.7282 52.3414 33.7659 52.147L35.0171 45.76L36.2872 46.1524V54.3692C36.2872 55.345 35.8917 56.2808 35.1877 56.9707C34.4837 57.6607 33.5289 58.0483 32.5333 58.0483ZM67.1938 22.6954C66.7926 24.1485 66.0097 25.4731 64.9231 26.537C63.8365 27.6009 62.4842 28.3669 61.0012 28.7586C60.7893 28.8145 60.5961 28.9241 60.4411 29.0762C60.286 29.2284 60.1745 29.4179 60.1178 29.6257L54.2368 51.1328C54.18 51.3405 54.18 51.5591 54.2366 51.7668C54.2933 51.9745 54.4047 52.164 54.5596 52.3162C55.5047 53.2406 56.2213 54.3648 56.6545 55.6026C57.0877 56.8404 57.226 58.159 57.0589 59.4573C56.8917 60.7556 56.4235 61.9992 55.6901 63.0927C54.9567 64.1863 53.9776 65.1007 52.8278 65.766L54.0891 61.1523C54.1496 60.9326 54.1466 60.7007 54.0803 60.4826C54.014 60.2645 53.8871 60.0688 53.7137 59.9174L49.5257 56.2787C49.297 56.0798 49.0019 55.9698 48.6961 55.9696C48.6121 55.97 48.5283 55.9782 48.4459 55.9942L42.964 57.0979C42.7366 57.1436 42.5266 57.2503 42.3576 57.4063C42.1885 57.5622 42.0671 57.7612 42.0068 57.9809L40.7467 62.5946C40.0903 61.4551 39.7088 60.1835 39.6314 58.8772C39.554 57.5709 39.7828 56.2645 40.3003 55.0583C40.8178 53.852 41.6101 52.7779 42.6167 51.9183C43.6233 51.0586 44.8173 50.4363 46.1072 50.0989C46.3191 50.043 46.5123 49.9335 46.6673 49.7813C46.8224 49.6291 46.9339 49.4396 46.9906 49.2319L52.8716 27.7235C52.9284 27.5158 52.9284 27.2972 52.8718 27.0895C52.8151 26.8818 52.7037 26.6923 52.5488 26.5401C51.604 25.6155 50.8877 24.4912 50.4547 23.2534C50.0218 22.0155 49.8836 20.697 50.0509 19.3988C50.2182 18.1005 50.6864 16.857 51.4198 15.7636C52.1532 14.6701 53.1322 13.7557 54.2818 13.0903L53.0118 17.7003C52.9515 17.9198 52.9547 18.1515 53.021 18.3693C53.0873 18.5872 53.2141 18.7827 53.3872 18.934L57.5739 22.5727C57.7191 22.699 57.8922 22.7904 58.0796 22.8398C58.2671 22.8892 58.4636 22.8951 58.6538 22.8572L64.1369 21.7535C64.3645 21.7077 64.5746 21.6008 64.7436 21.4446C64.9127 21.2884 65.034 21.0892 65.0941 20.8693L66.3554 16.2568C67.4848 18.2124 67.7859 20.5244 67.1938 22.6954Z" fill="#72758E"/>
</svg>
